<svg width="40" height="40" viewBox="0 0 40 40" fill="none" xmlns="http://www.w3.org/2000/svg">
    <path d="M21.0619 26.3032C21.0619 28.8373 22.1924 31.1084 23.9761 32.6358C21.8189 33.9137 19.2999 34.649 16.6118 34.649C8.62113 34.649 2.14282 28.1724 2.14282 20.1817C2.14282 12.191 8.6228 5.71436 16.6118 5.71436C23.8957 5.71436 29.9185 11.0956 30.9267 18.0965C30.4343 18.0027 29.9252 17.9558 29.406 17.9558C24.8001 17.9541 21.0619 21.6907 21.0619 26.3032Z" fill="white"/>
    <path d="M37.7551 26.3032C37.7551 30.9107 34.0168 34.6489 29.4076 34.6489C27.3342 34.6489 25.4382 33.8919 23.9778 32.6358C28.2269 30.1168 31.0791 25.4842 31.0791 20.1816C31.0791 19.4748 31.0289 18.7781 30.9284 18.0964C34.8124 18.8082 37.7551 22.2099 37.7551 26.3032Z" fill="#3F2059"/>
</svg>
