<svg width="24" height="24" viewBox="0 0 24 24" fill="none" xmlns="http://www.w3.org/2000/svg">
    <path d="M7.92 2H4.54C3.14 2 2 3.15 2 4.561V7.97C2 9.39 3.14 10.53 4.54 10.53H7.92C9.33 10.53 10.46 9.39 10.46 7.97V4.561C10.46 3.15 9.33 2 7.92 2Z" fill="#F8CA15"/>
    <path d="M7.92 13H4.54C3.14 13 2 14.15 2 15.561V18.97C2 20.39 3.14 21.53 4.54 21.53H7.92C9.33 21.53 10.46 20.39 10.46 18.97V15.561C10.46 14.15 9.33 13 7.92 13Z" fill="#3F2059"/>
    <path d="M18.9201 13H15.5401C14.1401 13 13.0001 14.15 13.0001 15.561V18.97C13.0001 20.39 14.1401 21.53 15.5401 21.53H18.9201C20.3301 21.53 21.4601 20.39 21.4601 18.97V15.561C21.4601 14.15 20.3301 13 18.9201 13Z" fill="#F8CA15"/>
    <path d="M14.0001 6.77778L16.154 9L21.0001 4" stroke="#3F2059" stroke-width="2.4" stroke-linecap="round" stroke-linejoin="round"/>
</svg>
