<svg width="16" height="16" viewBox="0 0 16 16" fill="none" xmlns="http://www.w3.org/2000/svg">
    <path fill-rule="evenodd" clip-rule="evenodd" d="M8 14.2C11.4242 14.2 14.2 11.4242 14.2 8C14.2 4.57583 11.4242 1.8 8 1.8C4.57583 1.8 1.8 4.57583 1.8 8C1.8 11.4242 4.57583 14.2 8 14.2ZM8 16C12.4183 16 16 12.4183 16 8C16 3.58172 12.4183 0 8 0C3.58172 0 0 3.58172 0 8C0 12.4183 3.58172 16 8 16ZM6.16165 4.56051C6.9574 4.13517 7.876 3.99891 8.76095 4.17494C9.6459 4.35097 10.4424 4.82839 11.0148 5.52587L10.3191 6.09682L11.0148 5.52587C11.5872 6.22334 11.9001 7.09772 11.9001 8H10.1001C10.1001 7.51415 9.93164 7.04334 9.62342 6.66778C9.3152 6.29221 8.8863 6.03514 8.40979 5.94035C7.93328 5.84557 7.43864 5.91894 7.01017 6.14797C6.58169 6.37699 6.24588 6.7475 6.05995 7.19637C5.87403 7.64523 5.84949 8.14467 5.99052 8.6096C6.13156 9.07452 6.42943 9.47617 6.8334 9.74609C7.23737 10.016 7.72243 10.1375 8.20593 10.0899C8.63577 10.0476 9.04074 9.87389 9.36672 9.59448L8 7.99998H9.5L12.5 11.5H11L10.5381 10.9611C9.93274 11.4801 9.18065 11.8026 8.38236 11.8812C7.48442 11.9697 6.5836 11.744 5.83337 11.2427C5.08315 10.7414 4.52995 9.99554 4.26803 9.13211C4.00611 8.26868 4.05168 7.34114 4.39697 6.50753C4.74226 5.67393 5.36591 4.98584 6.16165 4.56051Z" fill="#F8CA15"/>
</svg>
