<svg width="17" height="16" viewBox="0 0 17 16" fill="none" xmlns="http://www.w3.org/2000/svg">
    <path d="M12.5 5.33332V4.79999C12.5 4.05325 12.5 3.67988 12.3547 3.39467C12.2268 3.14379 12.0229 2.93981 11.772 2.81198C11.4868 2.66666 11.1134 2.66666 10.3667 2.66666H4.63333C3.8866 2.66666 3.51323 2.66666 3.22801 2.81198C2.97713 2.93981 2.77316 3.14379 2.64532 3.39467C2.5 3.67988 2.5 4.05325 2.5 4.79999V5.33332M14.5 7.99999H13.1667C12.4303 7.99999 11.8333 8.59694 11.8333 9.33332C11.8333 10.0697 12.4303 10.6667 13.1667 10.6667H14.5M2.5 5.33332V11.2C2.5 11.9467 2.5 12.3201 2.64532 12.6053C2.77316 12.8562 2.97713 13.0602 3.22801 13.188C3.51323 13.3333 3.8866 13.3333 4.63333 13.3333H12.3667C13.1134 13.3333 13.4868 13.3333 13.772 13.188C14.0229 13.0602 14.2268 12.8562 14.3547 12.6053C14.5 12.3201 14.5 11.9467 14.5 11.2V7.46666C14.5 6.71992 14.5 6.34655 14.3547 6.06134C14.2268 5.81045 14.0229 5.60648 13.772 5.47865C13.4868 5.33332 13.1134 5.33332 12.3667 5.33332H2.5Z" stroke="#190C24" stroke-width="1.6" stroke-linecap="round" stroke-linejoin="round"/>
</svg>
